<svg xmlns="http://www.w3.org/2000/svg" viewBox="0 0 156 17"><script xmlns=""/><title>JA_ico</title><g id="logo"><g id="logo_footer"><path d="M150.59,10.32c-.83,0-1.36-.75-1.36-2s.53-2,1.39-2a1.16,1.16,0,0,1,1.22,1.17h1.26a2.26,2.26,0,0,0-2.48-2.19c-1.65,0-2.66,1.14-2.66,3s1,3,2.63,3a2.34,2.34,0,0,0,2.55-2.23h-1.28A1.23,1.23,0,0,1,150.59,10.32Zm0-6.78a4.48,4.48,0,0,0-4.68,4.81,4.68,4.68,0,1,0,9.36,0A4.48,4.48,0,0,0,150.59,3.54Zm0,8.9a3.81,3.81,0,0,1-4-4.09,4,4,0,1,1,8,0A3.82,3.82,0,0,1,150.59,12.44Z"/></g><path d="M8.44,10.58a3.43,3.43,0,0,1-.55,1.36A3.25,3.25,0,0,1,6.65,13a4.78,4.78,0,0,1-2.19.43A5.46,5.46,0,0,1,3,13.21a3.63,3.63,0,0,1-1.29-.68,3.24,3.24,0,0,1-.91-1.17A4,4,0,0,1,.4,9.62V8.54H2.85V9.1a4.35,4.35,0,0,0,.07.83,1.79,1.79,0,0,0,.24.65,1.16,1.16,0,0,0,.48.42,1.61,1.61,0,0,0,.78.16A1.59,1.59,0,0,0,5.25,11a1.13,1.13,0,0,0,.42-.5,2,2,0,0,0,.16-.66c0-.23,0-.46,0-.68V.78H8.56V9.25a8.1,8.1,0,0,1-.12,1.33"/><path d="M12.89,9.73a2.71,2.71,0,0,0,.36.91,1.79,1.79,0,0,0,.66.65,2,2,0,0,0,1,.25,2,2,0,0,0,1-.25,1.82,1.82,0,0,0,.67-.65A2.71,2.71,0,0,0,17,9.73a5.26,5.26,0,0,0,.1-1.05A5.36,5.36,0,0,0,17,7.62a2.76,2.76,0,0,0-.36-.92A1.9,1.9,0,0,0,15,5.8a2.05,2.05,0,0,0-1,.25,2,2,0,0,0-.66.65,2.76,2.76,0,0,0-.36.92,5.36,5.36,0,0,0-.1,1.06,5.19,5.19,0,0,0,.1,1.05m-2.22-3a4.28,4.28,0,0,1,.93-1.49,4,4,0,0,1,1.45-1A5,5,0,0,1,15,4a5,5,0,0,1,1.9.34,4.06,4.06,0,0,1,1.46,1,4.28,4.28,0,0,1,.93,1.49,5.46,5.46,0,0,1,.33,1.95,5.45,5.45,0,0,1-.33,1.94,4.24,4.24,0,0,1-.93,1.48,4,4,0,0,1-1.46.94,5.63,5.63,0,0,1-3.8,0,4.08,4.08,0,0,1-1.45-.94,4.24,4.24,0,0,1-.93-1.48,5.41,5.41,0,0,1-.33-1.94,5.46,5.46,0,0,1,.33-1.95"/><path d="M23.41,9.72a2.89,2.89,0,0,0,.35.92,1.9,1.9,0,0,0,.67.65,2,2,0,0,0,1,.24,2.09,2.09,0,0,0,1.05-.24,1.9,1.9,0,0,0,.67-.65,2.75,2.75,0,0,0,.35-.92,5.17,5.17,0,0,0,.11-1,5.37,5.37,0,0,0-.11-1.06,2.67,2.67,0,0,0-.35-.92,2.08,2.08,0,0,0-.67-.65,2,2,0,0,0-1.05-.25,1.92,1.92,0,0,0-1,.25,2.08,2.08,0,0,0-.67.65,2.89,2.89,0,0,0-.35.92,5.36,5.36,0,0,0-.1,1.06,5.16,5.16,0,0,0,.1,1m-2.23-3a4.28,4.28,0,0,1,.93-1.49,4.2,4.2,0,0,1,1.45-1A5,5,0,0,1,25.46,4a5.28,5.28,0,0,1,1.91.33,4.31,4.31,0,0,1,1.46,1,4.19,4.19,0,0,1,.93,1.49,5.45,5.45,0,0,1,.32,1.94,5.37,5.37,0,0,1-.32,1.94,4.28,4.28,0,0,1-.93,1.49,4.12,4.12,0,0,1-1.46.94,5.28,5.28,0,0,1-1.91.33A5.13,5.13,0,0,1,23.57,13a4,4,0,0,1-1.45-.94,4.21,4.21,0,0,1-.94-1.48,5.68,5.68,0,0,1-.32-1.94,5.47,5.47,0,0,1,.32-1.95"/><path d="M34,4.19V5.44h.05A2.82,2.82,0,0,1,35.3,4.3,3.4,3.4,0,0,1,36.81,4a4.16,4.16,0,0,1,1.62.26,2.37,2.37,0,0,1,1,.75,2.93,2.93,0,0,1,.51,1.16,7,7,0,0,1,.15,1.51v5.51H37.63V8.09a3.18,3.18,0,0,0-.35-1.66,1.34,1.34,0,0,0-1.22-.54,1.69,1.69,0,0,0-1.45.59,3.35,3.35,0,0,0-.45,2v4.69H31.71V4.19Z"/><path d="M47.06,10.82a1.93,1.93,0,0,0,.65-.55,2.25,2.25,0,0,0,.39-.79,3.22,3.22,0,0,0,.13-.93,5.06,5.06,0,0,0-.1-1.05,2.6,2.6,0,0,0-.35-.87A1.7,1.7,0,0,0,47.14,6a2,2,0,0,0-1-.22,1.8,1.8,0,0,0-.89.21,1.83,1.83,0,0,0-.62.56,2.6,2.6,0,0,0-.36.81,4.35,4.35,0,0,0-.11,1,5,5,0,0,0,.09,1,2.85,2.85,0,0,0,.33.86,2,2,0,0,0,.62.63,1.7,1.7,0,0,0,.94.24,2,2,0,0,0,.92-.21m3.35,3a2.88,2.88,0,0,1-.63,1.29,3.71,3.71,0,0,1-1.39,1,6,6,0,0,1-2.45.42,6.28,6.28,0,0,1-1.34-.16,4.58,4.58,0,0,1-1.24-.52,2.83,2.83,0,0,1-.93-.89A2.61,2.61,0,0,1,42,13.64h2.44a1.38,1.38,0,0,0,.67,1,2.38,2.38,0,0,0,1.15.27,1.82,1.82,0,0,0,1.52-.62,2.51,2.51,0,0,0,.45-1.58V11.5h0a2.42,2.42,0,0,1-1.13,1,3.61,3.61,0,0,1-1.55.34,4,4,0,0,1-1.72-.35,3.33,3.33,0,0,1-1.19-1,4,4,0,0,1-.68-1.44,6.59,6.59,0,0,1-.22-1.74A5.45,5.45,0,0,1,42,6.71a4.44,4.44,0,0,1,.73-1.42,3.48,3.48,0,0,1,1.2-1,3.64,3.64,0,0,1,1.65-.37,3.39,3.39,0,0,1,1.54.33,2.58,2.58,0,0,1,1.11,1.11h0V4.19h2.33v8.38a5.86,5.86,0,0,1-.15,1.23"/><path d="M57.67,3.82h0l1.55,4.54H56.07Zm-1.35-3L51.67,13.14h2.72l1-2.76H60l.93,2.76h2.81L59.1.77Z"/><path d="M67.1,4.18V5.43h.05a2.82,2.82,0,0,1,1.21-1.14,3.56,3.56,0,0,1,1.52-.35,4.13,4.13,0,0,1,1.61.27,2.35,2.35,0,0,1,1,.74A3,3,0,0,1,73,6.11a7.12,7.12,0,0,1,.15,1.52v5.51H70.69V8.08a3.12,3.12,0,0,0-.35-1.65,1.32,1.32,0,0,0-1.22-.55,1.69,1.69,0,0,0-1.45.6,3.29,3.29,0,0,0-.45,2v4.7H64.77v-9Z"/><path d="M80.12,10.81a1.93,1.93,0,0,0,.65-.55,2.17,2.17,0,0,0,.39-.79,3.12,3.12,0,0,0,.13-.93,5,5,0,0,0-.1-1,2.75,2.75,0,0,0-.35-.88A1.76,1.76,0,0,0,80.2,6a2,2,0,0,0-1-.23,1.8,1.8,0,0,0-.89.21,2.07,2.07,0,0,0-.62.56,2.65,2.65,0,0,0-.36.82,4.21,4.21,0,0,0-.11,1,5.2,5.2,0,0,0,.09,1,3,3,0,0,0,.33.86,2,2,0,0,0,.61.62,1.76,1.76,0,0,0,1,.24,2,2,0,0,0,.92-.21m3.35,3a3,3,0,0,1-.62,1.29,3.85,3.85,0,0,1-1.4,1,6.15,6.15,0,0,1-2.45.41,5.7,5.7,0,0,1-1.34-.16,4.26,4.26,0,0,1-1.24-.51,3,3,0,0,1-.93-.89,2.65,2.65,0,0,1-.43-1.31H77.5a1.4,1.4,0,0,0,.67,1,2.39,2.39,0,0,0,1.16.27,1.74,1.74,0,0,0,1.5-.63,2.42,2.42,0,0,0,.46-1.57V11.49h0a2.5,2.5,0,0,1-1.13,1,3.76,3.76,0,0,1-1.55.34,3.83,3.83,0,0,1-1.72-.36,3.33,3.33,0,0,1-1.19-1A4,4,0,0,1,75,10.11a6.59,6.59,0,0,1-.22-1.74A5.54,5.54,0,0,1,75,6.7a4.44,4.44,0,0,1,.73-1.42,3.57,3.57,0,0,1,1.2-1,3.64,3.64,0,0,1,1.65-.36,3.42,3.42,0,0,1,1.54.33,2.57,2.57,0,0,1,1.12,1.1h0V4.18h2.33v8.38a5.86,5.86,0,0,1-.15,1.23"/><path d="M97.93,13a4.43,4.43,0,0,1-1.77.37,6.26,6.26,0,0,1-2.54-.49,5.37,5.37,0,0,1-1.9-1.36,5.79,5.79,0,0,1-1.19-2A7.4,7.4,0,0,1,90.11,7a7.6,7.6,0,0,1,.42-2.56,6.21,6.21,0,0,1,1.18-2.07A5.57,5.57,0,0,1,93.62,1a6.26,6.26,0,0,1,2.54-.5A5.94,5.94,0,0,1,98,.77a5.26,5.26,0,0,1,1.61.84A4.66,4.66,0,0,1,100.77,3a4.51,4.51,0,0,1,.57,1.87H98.76a2.62,2.62,0,0,0-.93-1.56,2.74,2.74,0,0,0-1.67-.52,3.09,3.09,0,0,0-1.55.36,2.85,2.85,0,0,0-1,1A4.06,4.06,0,0,0,93,5.43,6.81,6.81,0,0,0,92.82,7,6.39,6.39,0,0,0,93,8.52a3.93,3.93,0,0,0,.58,1.32,2.91,2.91,0,0,0,1,.94,3.12,3.12,0,0,0,1.55.36,2.92,2.92,0,0,0,2.08-.69,2.94,2.94,0,0,0,.85-2H96.37v-2h5.16v6.67H99.81l-.27-1.41A4,4,0,0,1,97.93,13"/><path d="M105.88,4.18V5.84h0a3.25,3.25,0,0,1,.47-.77,3,3,0,0,1,.67-.6,3,3,0,0,1,.81-.39,2.63,2.63,0,0,1,.89-.14,1.9,1.9,0,0,1,.54.09V6.31l-.42-.06-.46,0a2.6,2.6,0,0,0-1.14.23,2,2,0,0,0-.75.61,2.43,2.43,0,0,0-.4.91A4.93,4.93,0,0,0,106,9.09v4h-2.45V4.18Z"/><path d="M112.3,9.71a2.92,2.92,0,0,0,.35.91,1.9,1.9,0,0,0,.67.65,2,2,0,0,0,1,.24,2.05,2.05,0,0,0,1-.24,1.75,1.75,0,0,0,.67-.65,2.71,2.71,0,0,0,.36-.91,5.26,5.26,0,0,0,.1-1.05,5.19,5.19,0,0,0-.1-1,2.6,2.6,0,0,0-.36-.92,1.9,1.9,0,0,0-.67-.65,2,2,0,0,0-1-.25,1.92,1.92,0,0,0-1,.25,2,2,0,0,0-.67.65,2.8,2.8,0,0,0-.35.92,5.56,5.56,0,0,0,0,2.1m-2.22-3A4.19,4.19,0,0,1,111,5.23a4,4,0,0,1,1.45-1,4.93,4.93,0,0,1,1.89-.34,5,5,0,0,1,1.9.34,4.06,4.06,0,0,1,1.46,1,4.15,4.15,0,0,1,.93,1.48,5.5,5.5,0,0,1,.33,2,5.45,5.45,0,0,1-.33,1.94,4.33,4.33,0,0,1-.93,1.48,4.08,4.08,0,0,1-1.45.94,5.28,5.28,0,0,1-1.91.33,5.13,5.13,0,0,1-1.89-.33,4,4,0,0,1-1.45-.94,4.24,4.24,0,0,1-.93-1.48,5.41,5.41,0,0,1-.33-1.94,5.45,5.45,0,0,1,.33-1.94"/><path d="M126.67,13.12V11.87h0A2.74,2.74,0,0,1,125.41,13a3.55,3.55,0,0,1-1.51.35,4.27,4.27,0,0,1-1.61-.26,2.45,2.45,0,0,1-1-.74,2.73,2.73,0,0,1-.5-1.16,7,7,0,0,1-.15-1.51V4.18h2.44V9.23a3.12,3.12,0,0,0,.35,1.65,1.34,1.34,0,0,0,1.22.55,1.69,1.69,0,0,0,1.45-.6,3.31,3.31,0,0,0,.45-2V4.18H129v8.94Z"/><path d="M136.44,11.27a2.09,2.09,0,0,0,.66-.63,2.74,2.74,0,0,0,.35-.91,5.36,5.36,0,0,0,.1-1.06,4.62,4.62,0,0,0-.11-1,2.75,2.75,0,0,0-.37-.93,2,2,0,0,0-.66-.65,1.82,1.82,0,0,0-1-.25,1.87,1.87,0,0,0-1,.25,1.9,1.9,0,0,0-.65.64,2.76,2.76,0,0,0-.36.92,5.45,5.45,0,0,0,0,2.13,3,3,0,0,0,.36.91,2.09,2.09,0,0,0,2.67.63m-3.18-7.09V5.32h0a2.69,2.69,0,0,1,1.14-1.06A3.41,3.41,0,0,1,136,3.93,3.67,3.67,0,0,1,139,5.39a4.45,4.45,0,0,1,.74,1.53A6.83,6.83,0,0,1,140,8.74a6.18,6.18,0,0,1-.24,1.73,4.31,4.31,0,0,1-.73,1.47,3.58,3.58,0,0,1-1.23,1,3.66,3.66,0,0,1-1.71.38,3.49,3.49,0,0,1-1.52-.33,2.92,2.92,0,0,1-1.15-1h0v4.24h-2.45V4.18Z"/></g><script xmlns=""/></svg>