<svg xmlns="http://www.w3.org/2000/svg" viewBox="0 0 201 24"><script xmlns=""/><g id="logo"><path d="M11.58,15a4.93,4.93,0,0,1-.8,2A4.67,4.67,0,0,1,9,18.46a6.8,6.8,0,0,1-3.15.62,7.38,7.38,0,0,1-2.16-.32,5.46,5.46,0,0,1-1.87-1A4.87,4.87,0,0,1,.5,16.09a5.74,5.74,0,0,1-.5-2.5V12H3.53v.8a6.47,6.47,0,0,0,.1,1.2A2.4,2.4,0,0,0,4,15a1.68,1.68,0,0,0,.68.61,2.44,2.44,0,0,0,1.13.23A2.12,2.12,0,0,0,7,15.53a1.61,1.61,0,0,0,.61-.71,2.88,2.88,0,0,0,.22-1c0-.34,0-.67,0-1V.87h3.9V13.06A12.29,12.29,0,0,1,11.58,15"/><path d="M18,13.75a4,4,0,0,0,.51,1.32,2.85,2.85,0,0,0,.95.94,3,3,0,0,0,1.49.34A3,3,0,0,0,22.45,16a2.91,2.91,0,0,0,1-.94,4.27,4.27,0,0,0,.51-1.32,8.31,8.31,0,0,0,.14-1.51,8.6,8.6,0,0,0-.14-1.52,4.08,4.08,0,0,0-.51-1.32,3,3,0,0,0-1-.94,2.94,2.94,0,0,0-1.51-.36,2.86,2.86,0,0,0-1.49.36,2.94,2.94,0,0,0-.95.94A3.87,3.87,0,0,0,18,10.72a7.76,7.76,0,0,0-.15,1.52A7.51,7.51,0,0,0,18,13.75M14.78,9.44a6,6,0,0,1,1.35-2.15,5.85,5.85,0,0,1,2.08-1.37,7.18,7.18,0,0,1,2.73-.49,7.32,7.32,0,0,1,2.75.49,5.93,5.93,0,0,1,2.1,1.37,6.13,6.13,0,0,1,1.34,2.15,8,8,0,0,1,.47,2.8A7.93,7.93,0,0,1,27.13,15a6.08,6.08,0,0,1-1.34,2.14,5.75,5.75,0,0,1-2.1,1.35,7.52,7.52,0,0,1-2.75.48,7.38,7.38,0,0,1-2.73-.48,5.67,5.67,0,0,1-2.08-1.35A6,6,0,0,1,14.78,15a7.93,7.93,0,0,1-.47-2.79,8,8,0,0,1,.47-2.8"/><path d="M33.13,13.75a4,4,0,0,0,.51,1.32,2.79,2.79,0,0,0,1,.94,2.89,2.89,0,0,0,1.48.34A3,3,0,0,0,37.59,16a2.82,2.82,0,0,0,1-.94,4,4,0,0,0,.51-1.32,7.51,7.51,0,0,0,.14-1.51,7.75,7.75,0,0,0-.14-1.52,3.87,3.87,0,0,0-.51-1.32,2.74,2.74,0,0,0-2.48-1.3,2.8,2.8,0,0,0-1.48.36,2.88,2.88,0,0,0-1,.94,3.87,3.87,0,0,0-.51,1.32A7.76,7.76,0,0,0,33,12.24a7.51,7.51,0,0,0,.15,1.51m-3.2-4.31a5.87,5.87,0,0,1,3.42-3.52,7.18,7.18,0,0,1,2.73-.49,7.32,7.32,0,0,1,2.75.49,5.93,5.93,0,0,1,2.1,1.37,6.13,6.13,0,0,1,1.34,2.15,8,8,0,0,1,.47,2.8A7.93,7.93,0,0,1,42.27,15a6.08,6.08,0,0,1-1.34,2.14,5.75,5.75,0,0,1-2.1,1.35,7.52,7.52,0,0,1-2.75.48,7.38,7.38,0,0,1-2.73-.48,5.76,5.76,0,0,1-2.08-1.35A5.94,5.94,0,0,1,29.93,15a7.7,7.7,0,0,1-.48-2.79,7.76,7.76,0,0,1,.48-2.8"/><path d="M48.43,5.78v1.8h.08a4,4,0,0,1,1.74-1.64,5,5,0,0,1,2.18-.51,6,6,0,0,1,2.33.39,3.54,3.54,0,0,1,1.42,1.07,4,4,0,0,1,.73,1.67,9.91,9.91,0,0,1,.22,2.19v7.92H53.6V11.39A4.46,4.46,0,0,0,53.1,9a1.92,1.92,0,0,0-1.76-.78,2.43,2.43,0,0,0-2.09.86,4.78,4.78,0,0,0-.64,2.83v6.75H45.08V5.78Z"/><path d="M67.18,15.33a2.78,2.78,0,0,0,.94-.79,3.57,3.57,0,0,0,.56-1.14,4.5,4.5,0,0,0,.19-1.33,7.23,7.23,0,0,0-.15-1.51,3.74,3.74,0,0,0-.5-1.26,2.48,2.48,0,0,0-.92-.87,2.84,2.84,0,0,0-1.44-.33,2.6,2.6,0,0,0-1.28.3,2.75,2.75,0,0,0-.89.81,3.27,3.27,0,0,0-.52,1.17A5.69,5.69,0,0,0,63,11.77a7.16,7.16,0,0,0,.13,1.38,3.85,3.85,0,0,0,.47,1.24,2.8,2.8,0,0,0,.89.89,2.41,2.41,0,0,0,1.36.35,2.79,2.79,0,0,0,1.32-.3M72,19.62a4.26,4.26,0,0,1-.91,1.86,5.4,5.4,0,0,1-2,1.46,8.61,8.61,0,0,1-3.52.6,8.09,8.09,0,0,1-1.93-.24,6.18,6.18,0,0,1-1.79-.73,4.58,4.58,0,0,1-1.34-1.29,3.68,3.68,0,0,1-.61-1.88h3.5a2,2,0,0,0,1,1.38,3.46,3.46,0,0,0,1.67.39,2.56,2.56,0,0,0,2.17-.9A3.6,3.6,0,0,0,68.87,18V16.31h-.05a3.51,3.51,0,0,1-1.63,1.51A5.28,5.28,0,0,1,65,18.3a5.65,5.65,0,0,1-2.49-.51,4.78,4.78,0,0,1-1.71-1.4,5.83,5.83,0,0,1-1-2.07,9.68,9.68,0,0,1-.31-2.5,8.08,8.08,0,0,1,.36-2.41,6.19,6.19,0,0,1,1.06-2A4.82,4.82,0,0,1,62.62,6,5.17,5.17,0,0,1,65,5.43a4.92,4.92,0,0,1,2.23.48,3.82,3.82,0,0,1,1.6,1.59h.05V5.78h3.35V17.85A8.63,8.63,0,0,1,72,19.62"/><path d="M82.46,5.26h.05l2.24,6.53h-4.6ZM80.52.87l-6.7,17.81h3.92l1.39-4h6.64l1.34,4h4L84.52.87Z"/><path d="M96,5.78v1.8h.07a4.08,4.08,0,0,1,1.74-1.64A5,5,0,0,1,100,5.43a6,6,0,0,1,2.33.39,3.47,3.47,0,0,1,1.42,1.07,4.18,4.18,0,0,1,.74,1.67,10.57,10.57,0,0,1,.21,2.19v7.92H101.2V11.39A4.57,4.57,0,0,0,100.71,9a1.94,1.94,0,0,0-1.77-.78,2.4,2.4,0,0,0-2.08.86,4.7,4.7,0,0,0-.65,2.83v6.75H92.68V5.78Z"/><path d="M114.78,15.33a2.69,2.69,0,0,0,.94-.79,3.57,3.57,0,0,0,.56-1.14,4.5,4.5,0,0,0,.19-1.33,7.23,7.23,0,0,0-.15-1.51,3.54,3.54,0,0,0-.5-1.26,2.48,2.48,0,0,0-.92-.87,2.84,2.84,0,0,0-1.44-.33,2.6,2.6,0,0,0-1.28.3,2.75,2.75,0,0,0-.89.81,3.46,3.46,0,0,0-.52,1.17,5.69,5.69,0,0,0-.16,1.39,7.16,7.16,0,0,0,.13,1.38,3.64,3.64,0,0,0,.48,1.24,2.67,2.67,0,0,0,.88.89,2.41,2.41,0,0,0,1.36.35,2.79,2.79,0,0,0,1.32-.3m4.83,4.29a4.35,4.35,0,0,1-.9,1.86,5.52,5.52,0,0,1-2,1.46,8.63,8.63,0,0,1-3.53.6,8.14,8.14,0,0,1-1.92-.24,6.3,6.3,0,0,1-1.79-.73,4.58,4.58,0,0,1-1.34-1.29,3.78,3.78,0,0,1-.61-1.88H111a2,2,0,0,0,1,1.38,3.46,3.46,0,0,0,1.67.39,2.54,2.54,0,0,0,2.17-.9,3.48,3.48,0,0,0,.66-2.27V16.31h0a3.56,3.56,0,0,1-1.63,1.51,5.28,5.28,0,0,1-2.22.48,5.57,5.57,0,0,1-2.48-.51,4.73,4.73,0,0,1-1.72-1.4,5.83,5.83,0,0,1-1-2.07,9.68,9.68,0,0,1-.31-2.5,8.08,8.08,0,0,1,.36-2.41,6.19,6.19,0,0,1,1.06-2A4.82,4.82,0,0,1,110.22,6a5.17,5.17,0,0,1,2.37-.53,4.92,4.92,0,0,1,2.23.48,3.76,3.76,0,0,1,1.6,1.59h0V5.78h3.35V17.85a8.63,8.63,0,0,1-.21,1.77"/><path d="M140.43,18.53a6.42,6.42,0,0,1-2.55.54,9.09,9.09,0,0,1-3.66-.71,7.93,7.93,0,0,1-2.74-2,8.39,8.39,0,0,1-1.71-2.93,10.66,10.66,0,0,1-.6-3.62,11.09,11.09,0,0,1,.6-3.7,8.66,8.66,0,0,1,1.71-3,7.75,7.75,0,0,1,2.74-2,8.76,8.76,0,0,1,3.66-.73,8.38,8.38,0,0,1,2.64.42,7.47,7.47,0,0,1,2.31,1.2,6.59,6.59,0,0,1,2.51,4.66h-3.72a3.73,3.73,0,0,0-1.34-2.24,3.86,3.86,0,0,0-2.4-.75,4.51,4.51,0,0,0-2.23.51,4.18,4.18,0,0,0-1.49,1.37,6,6,0,0,0-.83,2,9.39,9.39,0,0,0-.27,2.26,8.74,8.74,0,0,0,.27,2.18,5.87,5.87,0,0,0,.83,1.91,4.13,4.13,0,0,0,1.49,1.35,4.51,4.51,0,0,0,2.23.51,4.21,4.21,0,0,0,3-1A4.28,4.28,0,0,0,142.09,12h-3.92V9.05h7.45v9.62h-2.49l-.39-2a5.84,5.84,0,0,1-2.31,1.88"/><path d="M151.87,5.79V8.18h0a4.33,4.33,0,0,1,.67-1.1,4.72,4.72,0,0,1,1-.88,5.24,5.24,0,0,1,1.17-.56,4.25,4.25,0,0,1,1.29-.2,2.88,2.88,0,0,1,.77.13V8.86a4.26,4.26,0,0,0-.6-.09,5.12,5.12,0,0,0-.67,0,3.64,3.64,0,0,0-1.63.33,2.76,2.76,0,0,0-1.08.88,3.47,3.47,0,0,0-.58,1.31,6.81,6.81,0,0,0-.18,1.62v5.8h-3.52V5.79Z"/><path d="M161.12,13.75a4,4,0,0,0,.51,1.32,2.65,2.65,0,0,0,1,.93,3.37,3.37,0,0,0,3,0,2.63,2.63,0,0,0,1-.93,4,4,0,0,0,.51-1.32,7.68,7.68,0,0,0,0-3,3.92,3.92,0,0,0-.51-1.33,2.79,2.79,0,0,0-1-.93,3.28,3.28,0,0,0-3,0,2.82,2.82,0,0,0-1,.93,3.92,3.92,0,0,0-.51,1.33,7.68,7.68,0,0,0,0,3m-3.2-4.31a5.89,5.89,0,0,1,3.42-3.51,7.38,7.38,0,0,1,2.73-.48,7.47,7.47,0,0,1,2.74.48,5.93,5.93,0,0,1,2.1,1.37,6.08,6.08,0,0,1,1.34,2.14,8,8,0,0,1,.47,2.8,7.93,7.93,0,0,1-.47,2.79,6.13,6.13,0,0,1-1.34,2.13,5.91,5.91,0,0,1-2.1,1.36,7.47,7.47,0,0,1-2.74.47,7.38,7.38,0,0,1-2.73-.47,5.92,5.92,0,0,1-2.08-1.36A6,6,0,0,1,157.92,15a7.7,7.7,0,0,1-.47-2.79,7.8,7.8,0,0,1,.47-2.8"/><path d="M181.81,18.67v-1.8h-.08A4,4,0,0,1,180,18.5a5.09,5.09,0,0,1-2.18.49,6.16,6.16,0,0,1-2.32-.37,3.29,3.29,0,0,1-1.42-1.06,4.26,4.26,0,0,1-.74-1.67,10.47,10.47,0,0,1-.21-2.18V5.79h3.52v7.27a4.51,4.51,0,0,0,.5,2.38,1.93,1.93,0,0,0,1.76.79,2.46,2.46,0,0,0,2.09-.86,4.8,4.8,0,0,0,.64-2.83V5.79h3.52V18.67Z"/><path d="M195.88,16a2.73,2.73,0,0,0,.94-.91,3.68,3.68,0,0,0,.51-1.3,7.76,7.76,0,0,0,.15-1.52,7,7,0,0,0-.16-1.52,4,4,0,0,0-.54-1.33,2.88,2.88,0,0,0-.95-.95,2.66,2.66,0,0,0-1.43-.36,2.74,2.74,0,0,0-1.45.36,2.88,2.88,0,0,0-.94.93,4,4,0,0,0-.51,1.32,7.91,7.91,0,0,0-.15,1.55,7.77,7.77,0,0,0,.16,1.52,3.89,3.89,0,0,0,.52,1.3,2.7,2.7,0,0,0,1,.91,2.75,2.75,0,0,0,1.44.35,2.71,2.71,0,0,0,1.45-.35M191.3,5.79V7.44h0A3.85,3.85,0,0,1,193,5.92a4.94,4.94,0,0,1,2.18-.48,5.3,5.3,0,0,1,4.42,2.1,6.52,6.52,0,0,1,1.06,2.2,9.88,9.88,0,0,1,.35,2.63,9,9,0,0,1-.35,2.49A6.24,6.24,0,0,1,199.6,17a5.12,5.12,0,0,1-1.76,1.47,5.23,5.23,0,0,1-2.47.55,5,5,0,0,1-2.19-.48,4.24,4.24,0,0,1-1.65-1.44h-.06v6.1H188V5.79Z"/></g><script xmlns=""/></svg>